<svg width="16" height="17" viewBox="0 0 16 17" fill="none" xmlns="http://www.w3.org/2000/svg">
<path d="M1.17251 8.49955L8.84999 0.822078C9.03881 0.633258 9.03881 0.330434 8.84999 0.141615C8.66117 -0.0472049 8.35835 -0.0472049 8.16953 0.141615L0.150038 8.16111C-0.038782 8.34992 -0.038782 8.65275 0.150038 8.84157L8.16953 16.8575C8.26215 16.9501 8.38685 17 8.50798 17C8.62911 17 8.7538 16.9537 8.84643 16.8575C9.03525 16.6687 9.03525 16.3659 8.84643 16.177L1.17251 8.49955Z" fill="black"/>
<path d="M7.60115 8.49955L15.2786 0.822078C15.4674 0.633258 15.4674 0.330434 15.2786 0.141615C15.0898 -0.0472049 14.787 -0.0472049 14.5982 0.141615L6.57867 8.16111C6.38985 8.34992 6.38985 8.65275 6.57867 8.84157L14.5982 16.8575C14.6908 16.9501 14.8155 17 14.9366 17C15.0577 17 15.1824 16.9537 15.2751 16.8575C15.4639 16.6687 15.4639 16.3659 15.2751 16.177L7.60115 8.49955Z" fill="black"/>
</svg>
